<svg width="20" height="20" viewBox="0 0 20 20" fill="none" xmlns="http://www.w3.org/2000/svg">
<path d="M20 2.21484V17.7812C20 18.3164 19.5045 18.7461 18.8973 18.7461H13.7991V11.9727H16.3973L16.7857 9.33203H13.7946V7.64453C13.7946 6.87891 14.0357 6.35938 15.2902 6.35938H16.8884V3.99609C16.6116 3.96484 15.6652 3.89062 14.558 3.89062C12.2545 3.89062 10.6741 5.12109 10.6741 7.38281V9.33203H8.06696V11.9727H10.6741V18.75H1.10268C0.495536 18.75 0 18.3164 0 17.7852V2.21484C0 1.68359 0.495536 1.25 1.10268 1.25H18.8929C19.5045 1.25 20 1.68359 20 2.21484Z" fill="black"/>
</svg>
